<svg xmlns="http://www.w3.org/2000/svg" width="75.088" height="86.011" viewBox="0 0 1987 2276" shape-rendering="geometricPrecision" text-rendering="geometricPrecision" image-rendering="optimizeQuality" fill-rule="evenodd" clip-rule="evenodd"><path d="M1698 871c-64-53-126-110-177-177C1231 317 1381 0 1381 0 843 226 720 584 715 851v3s5 153 73 321c22 53-2 115-57 130-45 14-91-9-110-50-31-67-72-174-60-249-86 113-142 250-156 403-39 400 238 772 632 851 453 90 882-220 942-671 39-282-77-549-281-718zm-270 861c-3 3-77 95-199 104-7 1-14 1-21 1-84 0-170-40-256-120l-19-18 24-9c2-1 165-64 205-200 14-46 9-98-12-147-26-60-77-210 19-319l18-20 9 26c0 1 58 169 194 257 40 26 71 59 91 95 40 78 63 201-53 350z" fill="#ff5d5e"/><path d="M1297 871c-64-53-126-110-177-177C830 317 980 0 980 0 442 226 319 584 314 851v3s5 153 73 321c22 53-2 115-57 130-45 14-91-9-110-50-31-67-72-174-60-249-86 113-142 250-157 403-38 400 239 772 633 851 453 90 881-220 942-671 39-282-77-549-281-718zm-271 861c-2 3-76 95-198 104-7 1-14 1-21 1-85 0-171-40-256-120l-19-18 24-9c2-1 165-64 205-200 14-46 9-98-12-147-26-60-77-210 19-319l18-20 9 26c0 1 58 169 193 257 41 26 72 59 92 95 39 78 63 201-54 350z" fill="#3cb2e0"/></svg>