<svg xmlns="http://www.w3.org/2000/svg" width="134.7mm" height="51.757" viewBox="0 0 13470 1369" shape-rendering="geometricPrecision" text-rendering="geometricPrecision" image-rendering="optimizeQuality" fill-rule="evenodd" clip-rule="evenodd"><g fill-rule="nonzero"><path d="M889 492H570v861H320V492H0V314h889v178zm953 861h-809V314h793v178h-543v238h490v178h-490v268h559v177zm1100 0h-250V492h-432v861h-250V314h932v1039zm325-1039h894v1039h-250V492h-394v636c0 41-5 77-17 107-11 30-25 53-41 70-17 16-39 29-67 38-29 9-56 15-81 18-26 2-57 4-95 4-60 0-103-3-130-8v-164c20 6 47 8 84 8 65 0 97-35 97-105V314zm2083 299v455c0 59-16 109-47 151-31 41-72 73-125 94-52 20-104 35-157 44-52 8-108 12-166 12-56 0-108-3-157-10-48-7-100-20-155-39s-99-50-131-93c-33-43-49-96-49-159V613c0-53 12-100 36-141 24-40 53-71 86-92 34-22 75-39 123-52 48-14 91-22 128-25 38-3 77-5 119-5s83 2 121 5c37 3 80 11 129 25 48 13 89 30 123 52 34 21 63 52 86 92 24 40 36 87 36 141zm-250 455V612c0-50-21-86-62-106s-102-30-182-30c-81 0-142 10-182 29-41 20-61 56-61 107v456c0 27 7 49 21 67 14 17 34 30 60 37 26 8 51 13 75 16 24 2 54 4 89 4s65-2 89-4c24-3 49-8 74-16 26-7 45-20 59-37 13-18 20-40 20-67zm4108 266c-117 24-230 35-336 35-43 0-83-1-121-5s-80-12-127-24c-46-13-86-29-118-50-33-21-60-50-83-88-22-38-33-82-33-134V612c0-209 160-314 482-314 79 0 189 12 330 35v188c-128-30-236-45-327-45-36 0-66 1-89 3s-47 7-72 16c-25 8-44 22-56 41-12 18-19 43-19 73v442c0 94 86 141 258 141 76 0 180-16 311-47v189zm969-842h-319v861h-250V492h-320V314h889v178zm972 61v197c0 102-34 172-102 209-69 38-181 56-338 56h-138v338h-250V314h417c147 0 252 16 316 49 63 32 95 96 95 190zm-242 189V575c0-33-12-55-38-66-26-12-73-17-143-17h-155v352h159c65 0 111-8 137-23 27-16 40-42 40-79zm1383-129v455c0 59-16 109-47 151-31 41-72 73-125 94-52 20-104 35-157 44-52 8-108 12-166 12-56 0-108-3-157-10-48-7-100-20-155-39s-99-50-131-93c-33-43-49-96-49-159V613c0-53 12-100 36-141 24-40 53-71 86-92 34-22 75-39 123-52 48-14 91-22 128-25 38-3 77-5 119-5s83 2 121 5c37 3 80 11 129 25 48 13 89 30 123 52 34 21 63 52 86 92 24 40 36 87 36 141zm-250 455V612c0-50-21-86-62-106s-102-30-182-30c-81 0-142 10-182 29-41 20-61 56-61 107v456c0 27 7 49 21 67 14 17 34 30 60 37 26 8 51 13 75 16 24 2 54 4 89 4s65-2 89-4c24-3 49-8 74-16 26-7 45-20 59-37 13-18 20-40 20-67zm720 285h-269V314h239v725l471-725h269v1039h-239V617l-471 736zM13201 0c-4 61-26 110-65 147-39 38-91 56-156 56-66 0-119-18-158-56-39-37-60-86-63-147h130c6 31 16 53 28 67 13 14 34 21 63 21 53 0 83-29 90-88h131z" fill="#004e90"/><path d="M6232 492h-431v861h-250V314h681v178zm1102 861h-253l-93-273h-380l-91 273h-246l384-1039h304l375 1039zm-400-440l-132-391h-6l-131 391h269zm1265 38v172c0 164-139 246-417 246-133 0-260-9-381-28v-191c141 28 258 42 351 42 67 0 117-8 149-24 32-15 48-35 48-60V988c0-30-14-50-43-61-29-12-79-17-151-17h-221V732h221c57 0 97-6 121-18 24-11 36-31 36-59v-98c0-30-13-51-39-63s-76-18-148-18c-13 0-114 6-304 19V312c146-9 256-14 329-14 131 0 231 15 302 44 70 29 105 82 105 159v172c0 32-10 58-31 80-21 21-45 36-73 43 97 35 146 87 146 155z" fill="#ed3237"/></g></svg>