<svg xmlns="http://www.w3.org/2000/svg" width="142.443" height="77.397" viewBox="0 0 3769 2048" shape-rendering="geometricPrecision" text-rendering="geometricPrecision" image-rendering="optimizeQuality" fill-rule="evenodd" clip-rule="evenodd"><defs><linearGradient id="a" gradientUnits="userSpaceOnUse" x1="704.87" y1="2416.17" x2="747.21" y2="-7.41"><stop offset="0" stop-color="#014c8f"/><stop offset="1" stop-color="#3cb2e0"/></linearGradient></defs><g fill-rule="nonzero"><path d="M1698 1163h-318v862h-250v-862H810V985h888v178zm2071 497v68c0 62-11 114-34 156-22 43-55 75-99 97-44 21-92 37-143 46-52 9-114 14-185 14-100 0-222-10-369-29v-191c178 28 301 42 372 42 139 0 208-36 208-107v-68c0-31-9-56-27-76-18-19-55-29-109-29h-122c-228 0-343-91-343-273v-76c0-90 38-157 113-200 76-43 196-65 361-65 81 0 189 7 326 21v186c-163-19-274-29-334-29-82 0-138 7-169 21s-47 37-47 70v74c0 54 46 82 138 82h125c122 0 208 22 260 67s78 111 78 199z" fill="#004e90"/><path d="M2770 1973c-54 20-122 36-205 48-82 13-158 20-228 20-57 0-109-3-156-8-46-4-93-13-139-27-47-13-86-31-117-52-32-21-57-50-76-86-19-37-29-79-29-128v-433c0-54 11-102 34-144 22-42 50-74 85-98 34-23 75-43 123-58 48-16 94-26 138-30 45-5 91-8 140-8 148 0 289 12 423 34v189c-127-30-268-45-423-45-180 0-270 52-270 157v418c0 53 25 90 76 110 51 21 123 31 217 31 52 0 108-8 168-24v-242h-170v-163h409v539z" fill="#ed3237"/></g><path d="M1167 784c-58-48-113-99-159-159C747 285 882 0 882 0 398 203 287 526 282 766l1 3s4 137 66 289c19 47-3 102-52 117-40 11-82-9-99-46-28-60-65-156-54-224-77 102-128 226-141 363-34 360 214 695 570 766 111 22 220 17 322-10-36-13-74-28-113-45-445-190-405-423-405-423l124-35c0-1 59-23 112-71 39-50 69-136 46-280-8-23-15-52-17-83-103-399 23-534 23-534s21 82 172 209c128 108 339 94 399 87-21-23-44-45-69-65z" fill="url(#a)"/></svg>