<svg xmlns="http://www.w3.org/2000/svg" width="75.417" height="104.149" viewBox="0 0 1995 2756" shape-rendering="geometricPrecision" text-rendering="geometricPrecision" image-rendering="optimizeQuality" fill-rule="evenodd" clip-rule="evenodd"><defs><style>.fil1{fill:#3b97d3}</style></defs><g id="Слой_x0020_1"><g id="Page-1"><g id="_022---Gas-Canister"><path id="Shape" d="M1615 333H380c-131 0-237 106-237 237v1663l101 168c25 43 72 70 122 70h1264c50 0 96-27 122-70l101-168V570c0-63-25-123-70-168-44-44-105-69-168-69z" fill="#2980ba"/><path id="Shape_0" class="fil1" d="M285 2471h1425c105 0 190 85 190 190v47c0 26-21 48-47 48H143c-27 0-48-22-48-48v-47c0-105 85-190 190-190z"/><path id="Shape_1" d="M1568 523h-95V95c0-52-43-95-95-95H618c-53 0-95 43-95 95v428h-95c-27 0-48 21-48 47v143c0 26 21 47 48 47h1140c26 0 47-21 47-47V570c0-26-21-47-47-47zm-320-83c-22 23-52 35-84 35H831c-65 0-118-53-118-119 0-65 53-118 118-118h333c48-1 92 28 110 73 18 44 8 95-26 129z" fill="#bdc3c7"/><path id="Shape_2" class="fil1" d="M1866 1188H119c-66 0-119-53-119-119s53-119 119-119h1758c65 0 118 53 118 119 0 31-12 62-34 84-23 22-53 35-84 35h-11z"/><path id="Shape_3" class="fil1" d="M143 1995h1734c65 0 118 54 118 119 0 32-12 62-34 84-23 22-53 35-84 35H119c-32 0-62-13-84-35s-35-52-35-84c0-65 53-119 119-119h24z"/><path id="Shape_4" d="M1012 1995c-38 0-76-4-114-14-66-15-127-49-174-99-57-73-75-169-47-257l23-82 58 63c15 16 33 27 54 33 6 1 12 2 18 2 20 0 39-8 54-22 15-15 21-37 16-58-5-18-13-36-24-52-10-14-17-29-23-44-13-58 4-119 46-161 18-22 37-42 58-60 9-10 18-17 26-26l79-78 2 111c0 7 1 14 2 20 4 42 25 81 57 109l16 15c43 36 82 77 115 122 32 45 55 95 69 148 18 75 2 155-45 218-66 77-164 118-266 112z" fill="#ffd15c"/></g></g></g></svg>