<svg xmlns="http://www.w3.org/2000/svg" width="64.558" height="84.945" viewBox="0 0 1708 2247" shape-rendering="geometricPrecision" text-rendering="geometricPrecision" image-rendering="optimizeQuality" fill-rule="evenodd" clip-rule="evenodd"><defs><style>.fil0{fill:#ff5d5e}</style></defs><g id="Слой_x0020_1"><g id="_1981947420432"><path class="fil0" d="M1169 556h511c16 0 28-12 28-28 0-50-22-97-60-129L1219 42c-32-27-73-41-115-41-24 0-42 18-42 41v407c0 59 48 107 107 107z"/><path class="fil0" d="M916 449V0H180C81 0 0 81 0 180v1888c0 99 81 179 180 179h1348c99 0 180-80 180-179V702h-539c-140 0-253-113-253-253z"/></g></g></svg>